<mxfile host="app.diagrams.net" modified="2023-12-30T12:52:07.208Z" agent="Mozilla/5.0 (Windows NT 10.0; Win64; x64) AppleWebKit/537.36 (KHTML, like Gecko) Chrome/120.0.0.0 Safari/537.36" version="22.1.15" etag="4pEKRQvpiPm3H6Un1aTt" type="device">
  <diagram id="SKJ3Dqnvn67Mu6V2K0uZ" name="Page-1">
    <mxGraphModel dx="1136" dy="596" grid="1" gridSize="10" guides="1" tooltips="1" connect="1" arrows="1" fold="1" page="1" pageScale="1" pageWidth="850" pageHeight="1100" math="0" shadow="0">
      <root>
        <mxCell id="0" />
        <mxCell id="1" parent="0" />
        <mxCell id="krct0K91iLvaCfJSw0Wz-29" value="" style="rounded=0;whiteSpace=wrap;html=1;strokeColor=#00CC00;fillColor=none;dashed=1;strokeWidth=2;" parent="1" vertex="1">
          <mxGeometry x="398.48" y="20" width="320" height="150" as="geometry" />
        </mxCell>
        <mxCell id="krct0K91iLvaCfJSw0Wz-105" style="edgeStyle=orthogonalEdgeStyle;rounded=0;orthogonalLoop=1;jettySize=auto;html=1;endArrow=none;endFill=0;" parent="1" source="krct0K91iLvaCfJSw0Wz-8" target="krct0K91iLvaCfJSw0Wz-100" edge="1">
          <mxGeometry relative="1" as="geometry">
            <Array as="points">
              <mxPoint x="240" y="180" />
              <mxPoint x="329" y="180" />
            </Array>
          </mxGeometry>
        </mxCell>
        <mxCell id="krct0K91iLvaCfJSw0Wz-8" value="" style="rounded=0;whiteSpace=wrap;html=1;strokeColor=#FF0000;fillColor=none;" parent="1" vertex="1">
          <mxGeometry x="149.73" y="210" width="185" height="270" as="geometry" />
        </mxCell>
        <mxCell id="krct0K91iLvaCfJSw0Wz-19" value="" style="rounded=0;whiteSpace=wrap;html=1;strokeColor=#007FFF;fillColor=none;" parent="1" vertex="1">
          <mxGeometry x="334.73" y="210" width="100" height="270" as="geometry" />
        </mxCell>
        <mxCell id="krct0K91iLvaCfJSw0Wz-4" style="edgeStyle=orthogonalEdgeStyle;rounded=0;orthogonalLoop=1;jettySize=auto;html=1;exitX=0.095;exitY=1.024;exitDx=0;exitDy=0;exitPerimeter=0;entryX=0;entryY=0.5;entryDx=0;entryDy=0;" parent="1" source="krct0K91iLvaCfJSw0Wz-3" target="krct0K91iLvaCfJSw0Wz-8" edge="1">
          <mxGeometry relative="1" as="geometry">
            <mxPoint x="428.48" y="180" as="targetPoint" />
            <mxPoint x="119.99982000000021" y="172.88" as="sourcePoint" />
            <Array as="points">
              <mxPoint x="60" y="345" />
            </Array>
          </mxGeometry>
        </mxCell>
        <mxCell id="krct0K91iLvaCfJSw0Wz-5" value="Stream of &lt;br&gt;26 hand keypoints &lt;br&gt;3D coordinates&lt;br&gt;(~60 Hz)" style="edgeLabel;html=1;align=center;verticalAlign=middle;resizable=0;points=[];" parent="krct0K91iLvaCfJSw0Wz-4" vertex="1" connectable="0">
          <mxGeometry x="-0.0466" relative="1" as="geometry">
            <mxPoint x="20" y="44" as="offset" />
          </mxGeometry>
        </mxCell>
        <mxCell id="krct0K91iLvaCfJSw0Wz-3" value="" style="shape=image;verticalLabelPosition=bottom;labelBackgroundColor=default;verticalAlign=top;aspect=fixed;imageAspect=0;image=https://ms.liftforward.com/assets/hololens/hololens_product-9d79aab0e878b42dfc966afa7da47367d428f478697d5517e06618d4aa0975a0.png;dashed=1;imageBorder=#FF9933;strokeWidth=2;" parent="1" vertex="1">
          <mxGeometry x="40" y="40" width="213.33" height="120" as="geometry" />
        </mxCell>
        <mxCell id="krct0K91iLvaCfJSw0Wz-6" value="x&lt;span style=&quot;font-size: 10px;&quot;&gt;&lt;sub&gt;1&lt;/sub&gt;&lt;/span&gt;&lt;sub style=&quot;border-color: var(--border-color);&quot;&gt;&lt;br style=&quot;border-color: var(--border-color);&quot;&gt;&lt;/sub&gt;y&lt;span style=&quot;font-size: 8.33333px;&quot;&gt;&lt;sub&gt;1&lt;/sub&gt;&lt;/span&gt;&lt;sub style=&quot;border-color: var(--border-color);&quot;&gt;&lt;br style=&quot;border-color: var(--border-color);&quot;&gt;&lt;/sub&gt;z&lt;sub&gt;1&lt;/sub&gt;&lt;span style=&quot;border-color: var(--border-color); font-size: 10px;&quot;&gt;&lt;sub style=&quot;border-color: var(--border-color);&quot;&gt;&lt;br&gt;&lt;/sub&gt;&lt;/span&gt;...&lt;br&gt;...&lt;br&gt;...&lt;br&gt;x&lt;span style=&quot;font-size: 10px;&quot;&gt;&lt;sub&gt;26&lt;/sub&gt;&lt;/span&gt;&lt;sub style=&quot;border-color: var(--border-color);&quot;&gt;&lt;br style=&quot;border-color: var(--border-color);&quot;&gt;&lt;/sub&gt;y&lt;span style=&quot;font-size: 10px;&quot;&gt;&lt;sub&gt;26&lt;/sub&gt;&lt;/span&gt;&lt;sub style=&quot;border-color: var(--border-color);&quot;&gt;&lt;br style=&quot;border-color: var(--border-color);&quot;&gt;&lt;/sub&gt;z&lt;span style=&quot;font-size: 10px;&quot;&gt;&lt;sub&gt;26&lt;/sub&gt;&lt;/span&gt;" style="rounded=0;whiteSpace=wrap;html=1;" parent="1" vertex="1">
          <mxGeometry x="164.73" y="227.5" width="25" height="172.5" as="geometry" />
        </mxCell>
        <mxCell id="krct0K91iLvaCfJSw0Wz-11" value="&lt;font style=&quot;font-size: 14px;&quot;&gt;Previous&lt;br&gt;Window&lt;/font&gt;" style="text;html=1;strokeColor=none;fillColor=none;align=center;verticalAlign=middle;whiteSpace=wrap;rounded=0;" parent="1" vertex="1">
          <mxGeometry x="349.73" y="432.5" width="70" height="40" as="geometry" />
        </mxCell>
        <mxCell id="krct0K91iLvaCfJSw0Wz-12" value="N = 1" style="text;html=1;strokeColor=none;fillColor=none;align=center;verticalAlign=middle;whiteSpace=wrap;rounded=0;" parent="1" vertex="1">
          <mxGeometry x="147.23000000000002" y="402.5" width="60" height="30" as="geometry" />
        </mxCell>
        <mxCell id="krct0K91iLvaCfJSw0Wz-15" value="x&lt;span style=&quot;font-size: 10px;&quot;&gt;&lt;sub&gt;1&lt;/sub&gt;&lt;/span&gt;&lt;sub style=&quot;border-color: var(--border-color);&quot;&gt;&lt;br style=&quot;border-color: var(--border-color);&quot;&gt;&lt;/sub&gt;y&lt;span style=&quot;font-size: 8.33333px;&quot;&gt;&lt;sub&gt;1&lt;/sub&gt;&lt;/span&gt;&lt;sub style=&quot;border-color: var(--border-color);&quot;&gt;&lt;br style=&quot;border-color: var(--border-color);&quot;&gt;&lt;/sub&gt;z&lt;sub&gt;1&lt;/sub&gt;&lt;span style=&quot;border-color: var(--border-color); font-size: 10px;&quot;&gt;&lt;sub style=&quot;border-color: var(--border-color);&quot;&gt;&lt;br&gt;&lt;/sub&gt;&lt;/span&gt;...&lt;br&gt;...&lt;br&gt;...&lt;br&gt;x&lt;span style=&quot;font-size: 10px;&quot;&gt;&lt;sub&gt;26&lt;/sub&gt;&lt;/span&gt;&lt;sub style=&quot;border-color: var(--border-color);&quot;&gt;&lt;br style=&quot;border-color: var(--border-color);&quot;&gt;&lt;/sub&gt;y&lt;span style=&quot;font-size: 10px;&quot;&gt;&lt;sub&gt;26&lt;/sub&gt;&lt;/span&gt;&lt;sub style=&quot;border-color: var(--border-color);&quot;&gt;&lt;br style=&quot;border-color: var(--border-color);&quot;&gt;&lt;/sub&gt;z&lt;span style=&quot;font-size: 10px;&quot;&gt;&lt;sub&gt;26&lt;/sub&gt;&lt;/span&gt;" style="rounded=0;whiteSpace=wrap;html=1;" parent="1" vertex="1">
          <mxGeometry x="384.73" y="227.5" width="25" height="172.5" as="geometry" />
        </mxCell>
        <mxCell id="krct0K91iLvaCfJSw0Wz-16" value="N = 90" style="text;html=1;strokeColor=none;fillColor=none;align=center;verticalAlign=middle;whiteSpace=wrap;rounded=0;" parent="1" vertex="1">
          <mxGeometry x="269.73" y="402.5" width="60" height="30" as="geometry" />
        </mxCell>
        <mxCell id="krct0K91iLvaCfJSw0Wz-17" value="... ... ..." style="text;html=1;strokeColor=none;fillColor=none;align=center;verticalAlign=middle;whiteSpace=wrap;rounded=0;" parent="1" vertex="1">
          <mxGeometry x="212.23000000000002" y="298.75" width="60" height="30" as="geometry" />
        </mxCell>
        <mxCell id="krct0K91iLvaCfJSw0Wz-20" value="x&lt;span style=&quot;font-size: 10px;&quot;&gt;&lt;sub&gt;1&lt;/sub&gt;&lt;/span&gt;&lt;sub style=&quot;border-color: var(--border-color);&quot;&gt;&lt;br style=&quot;border-color: var(--border-color);&quot;&gt;&lt;/sub&gt;y&lt;span style=&quot;font-size: 8.33333px;&quot;&gt;&lt;sub&gt;1&lt;/sub&gt;&lt;/span&gt;&lt;sub style=&quot;border-color: var(--border-color);&quot;&gt;&lt;br style=&quot;border-color: var(--border-color);&quot;&gt;&lt;/sub&gt;z&lt;sub&gt;1&lt;/sub&gt;&lt;span style=&quot;border-color: var(--border-color); font-size: 10px;&quot;&gt;&lt;sub style=&quot;border-color: var(--border-color);&quot;&gt;&lt;br&gt;&lt;/sub&gt;&lt;/span&gt;...&lt;br&gt;...&lt;br&gt;...&lt;br&gt;x&lt;span style=&quot;font-size: 10px;&quot;&gt;&lt;sub&gt;26&lt;/sub&gt;&lt;/span&gt;&lt;sub style=&quot;border-color: var(--border-color);&quot;&gt;&lt;br style=&quot;border-color: var(--border-color);&quot;&gt;&lt;/sub&gt;y&lt;span style=&quot;font-size: 10px;&quot;&gt;&lt;sub&gt;26&lt;/sub&gt;&lt;/span&gt;&lt;sub style=&quot;border-color: var(--border-color);&quot;&gt;&lt;br style=&quot;border-color: var(--border-color);&quot;&gt;&lt;/sub&gt;z&lt;span style=&quot;font-size: 10px;&quot;&gt;&lt;sub&gt;26&lt;/sub&gt;&lt;/span&gt;" style="rounded=0;whiteSpace=wrap;html=1;" parent="1" vertex="1">
          <mxGeometry x="287.23" y="227.5" width="25" height="172.5" as="geometry" />
        </mxCell>
        <mxCell id="krct0K91iLvaCfJSw0Wz-21" value="N = 93" style="text;html=1;strokeColor=none;fillColor=none;align=center;verticalAlign=middle;whiteSpace=wrap;rounded=0;" parent="1" vertex="1">
          <mxGeometry x="367.23" y="402.5" width="60" height="30" as="geometry" />
        </mxCell>
        <mxCell id="krct0K91iLvaCfJSw0Wz-22" value="..." style="text;html=1;strokeColor=none;fillColor=none;align=center;verticalAlign=middle;whiteSpace=wrap;rounded=0;" parent="1" vertex="1">
          <mxGeometry x="339.73" y="298.75" width="40" height="30" as="geometry" />
        </mxCell>
        <mxCell id="krct0K91iLvaCfJSw0Wz-64" style="edgeStyle=orthogonalEdgeStyle;rounded=0;orthogonalLoop=1;jettySize=auto;html=1;entryX=0.5;entryY=0;entryDx=0;entryDy=0;" parent="1" source="krct0K91iLvaCfJSw0Wz-29" target="krct0K91iLvaCfJSw0Wz-44" edge="1">
          <mxGeometry relative="1" as="geometry" />
        </mxCell>
        <mxCell id="krct0K91iLvaCfJSw0Wz-33" value="... ... ..." style="text;html=1;strokeColor=none;fillColor=none;align=center;verticalAlign=middle;whiteSpace=wrap;rounded=0;" parent="1" vertex="1">
          <mxGeometry x="527.23" y="77.5" width="60" height="30" as="geometry" />
        </mxCell>
        <mxCell id="krct0K91iLvaCfJSw0Wz-36" value="N = 90" style="text;html=1;strokeColor=none;fillColor=none;align=center;verticalAlign=middle;whiteSpace=wrap;rounded=0;" parent="1" vertex="1">
          <mxGeometry x="624.73" y="132.5" width="60" height="30" as="geometry" />
        </mxCell>
        <mxCell id="krct0K91iLvaCfJSw0Wz-37" value="class:&lt;br&gt;Rotate Right&lt;br&gt;conf: 0.95" style="rounded=0;whiteSpace=wrap;html=1;" parent="1" vertex="1">
          <mxGeometry x="607.23" y="55.63" width="92.5" height="73.75" as="geometry" />
        </mxCell>
        <mxCell id="krct0K91iLvaCfJSw0Wz-78" value="" style="edgeStyle=orthogonalEdgeStyle;rounded=0;orthogonalLoop=1;jettySize=auto;html=1;" parent="1" source="krct0K91iLvaCfJSw0Wz-43" target="krct0K91iLvaCfJSw0Wz-77" edge="1">
          <mxGeometry relative="1" as="geometry" />
        </mxCell>
        <mxCell id="krct0K91iLvaCfJSw0Wz-43" value="" style="childLayout=tableLayout;recursiveResize=0;shadow=0;fillColor=none;" parent="1" vertex="1">
          <mxGeometry x="458.48" y="210" width="265" height="150" as="geometry" />
        </mxCell>
        <mxCell id="krct0K91iLvaCfJSw0Wz-44" value="" style="shape=tableRow;horizontal=0;startSize=0;swimlaneHead=0;swimlaneBody=0;top=0;left=0;bottom=0;right=0;dropTarget=0;collapsible=0;recursiveResize=0;expand=0;fontStyle=0;fillColor=none;strokeColor=inherit;" parent="krct0K91iLvaCfJSw0Wz-43" vertex="1">
          <mxGeometry width="265" height="40" as="geometry" />
        </mxCell>
        <mxCell id="krct0K91iLvaCfJSw0Wz-45" value="&lt;b&gt;Gesture&lt;/b&gt;" style="connectable=0;recursiveResize=0;strokeColor=inherit;fillColor=none;align=center;whiteSpace=wrap;html=1;" parent="krct0K91iLvaCfJSw0Wz-44" vertex="1">
          <mxGeometry width="100" height="40" as="geometry">
            <mxRectangle width="100" height="40" as="alternateBounds" />
          </mxGeometry>
        </mxCell>
        <mxCell id="krct0K91iLvaCfJSw0Wz-46" value="&lt;b&gt;Occurences&lt;/b&gt;" style="connectable=0;recursiveResize=0;strokeColor=inherit;fillColor=none;align=center;whiteSpace=wrap;html=1;" parent="krct0K91iLvaCfJSw0Wz-44" vertex="1">
          <mxGeometry x="100" width="78" height="40" as="geometry">
            <mxRectangle width="78" height="40" as="alternateBounds" />
          </mxGeometry>
        </mxCell>
        <mxCell id="krct0K91iLvaCfJSw0Wz-47" value="&lt;b&gt;Confidence average&lt;/b&gt;" style="connectable=0;recursiveResize=0;strokeColor=inherit;fillColor=none;align=center;whiteSpace=wrap;html=1;" parent="krct0K91iLvaCfJSw0Wz-44" vertex="1">
          <mxGeometry x="178" width="87" height="40" as="geometry">
            <mxRectangle width="87" height="40" as="alternateBounds" />
          </mxGeometry>
        </mxCell>
        <mxCell id="krct0K91iLvaCfJSw0Wz-48" style="shape=tableRow;horizontal=0;startSize=0;swimlaneHead=0;swimlaneBody=0;top=0;left=0;bottom=0;right=0;dropTarget=0;collapsible=0;recursiveResize=0;expand=0;fontStyle=0;fillColor=none;strokeColor=inherit;" parent="krct0K91iLvaCfJSw0Wz-43" vertex="1">
          <mxGeometry y="40" width="265" height="27" as="geometry" />
        </mxCell>
        <mxCell id="krct0K91iLvaCfJSw0Wz-49" value="Rotate Right" style="connectable=0;recursiveResize=0;strokeColor=inherit;fillColor=none;align=center;whiteSpace=wrap;html=1;" parent="krct0K91iLvaCfJSw0Wz-48" vertex="1">
          <mxGeometry width="100" height="27" as="geometry">
            <mxRectangle width="100" height="27" as="alternateBounds" />
          </mxGeometry>
        </mxCell>
        <mxCell id="krct0K91iLvaCfJSw0Wz-50" value="78" style="connectable=0;recursiveResize=0;strokeColor=inherit;fillColor=none;align=center;whiteSpace=wrap;html=1;" parent="krct0K91iLvaCfJSw0Wz-48" vertex="1">
          <mxGeometry x="100" width="78" height="27" as="geometry">
            <mxRectangle width="78" height="27" as="alternateBounds" />
          </mxGeometry>
        </mxCell>
        <mxCell id="krct0K91iLvaCfJSw0Wz-51" value="0.87" style="connectable=0;recursiveResize=0;strokeColor=inherit;fillColor=none;align=center;whiteSpace=wrap;html=1;" parent="krct0K91iLvaCfJSw0Wz-48" vertex="1">
          <mxGeometry x="178" width="87" height="27" as="geometry">
            <mxRectangle width="87" height="27" as="alternateBounds" />
          </mxGeometry>
        </mxCell>
        <mxCell id="krct0K91iLvaCfJSw0Wz-52" style="shape=tableRow;horizontal=0;startSize=0;swimlaneHead=0;swimlaneBody=0;top=0;left=0;bottom=0;right=0;dropTarget=0;collapsible=0;recursiveResize=0;expand=0;fontStyle=0;fillColor=none;strokeColor=inherit;" parent="krct0K91iLvaCfJSw0Wz-43" vertex="1">
          <mxGeometry y="67" width="265" height="28" as="geometry" />
        </mxCell>
        <mxCell id="krct0K91iLvaCfJSw0Wz-53" value="Walk Backward" style="connectable=0;recursiveResize=0;strokeColor=inherit;fillColor=none;align=center;whiteSpace=wrap;html=1;" parent="krct0K91iLvaCfJSw0Wz-52" vertex="1">
          <mxGeometry width="100" height="28" as="geometry">
            <mxRectangle width="100" height="28" as="alternateBounds" />
          </mxGeometry>
        </mxCell>
        <mxCell id="krct0K91iLvaCfJSw0Wz-54" value="10" style="connectable=0;recursiveResize=0;strokeColor=inherit;fillColor=none;align=center;whiteSpace=wrap;html=1;" parent="krct0K91iLvaCfJSw0Wz-52" vertex="1">
          <mxGeometry x="100" width="78" height="28" as="geometry">
            <mxRectangle width="78" height="28" as="alternateBounds" />
          </mxGeometry>
        </mxCell>
        <mxCell id="krct0K91iLvaCfJSw0Wz-55" value="0.62" style="connectable=0;recursiveResize=0;strokeColor=inherit;fillColor=none;align=center;whiteSpace=wrap;html=1;" parent="krct0K91iLvaCfJSw0Wz-52" vertex="1">
          <mxGeometry x="178" width="87" height="28" as="geometry">
            <mxRectangle width="87" height="28" as="alternateBounds" />
          </mxGeometry>
        </mxCell>
        <mxCell id="krct0K91iLvaCfJSw0Wz-56" style="shape=tableRow;horizontal=0;startSize=0;swimlaneHead=0;swimlaneBody=0;top=0;left=0;bottom=0;right=0;dropTarget=0;collapsible=0;recursiveResize=0;expand=0;fontStyle=0;fillColor=none;strokeColor=inherit;" parent="krct0K91iLvaCfJSw0Wz-43" vertex="1">
          <mxGeometry y="95" width="265" height="27" as="geometry" />
        </mxCell>
        <mxCell id="krct0K91iLvaCfJSw0Wz-57" value="Walk Forward" style="connectable=0;recursiveResize=0;strokeColor=inherit;fillColor=none;align=center;whiteSpace=wrap;html=1;" parent="krct0K91iLvaCfJSw0Wz-56" vertex="1">
          <mxGeometry width="100" height="27" as="geometry">
            <mxRectangle width="100" height="27" as="alternateBounds" />
          </mxGeometry>
        </mxCell>
        <mxCell id="krct0K91iLvaCfJSw0Wz-58" value="2" style="connectable=0;recursiveResize=0;strokeColor=inherit;fillColor=none;align=center;whiteSpace=wrap;html=1;" parent="krct0K91iLvaCfJSw0Wz-56" vertex="1">
          <mxGeometry x="100" width="78" height="27" as="geometry">
            <mxRectangle width="78" height="27" as="alternateBounds" />
          </mxGeometry>
        </mxCell>
        <mxCell id="krct0K91iLvaCfJSw0Wz-59" value="0.56" style="connectable=0;recursiveResize=0;strokeColor=inherit;fillColor=none;align=center;whiteSpace=wrap;html=1;" parent="krct0K91iLvaCfJSw0Wz-56" vertex="1">
          <mxGeometry x="178" width="87" height="27" as="geometry">
            <mxRectangle width="87" height="27" as="alternateBounds" />
          </mxGeometry>
        </mxCell>
        <mxCell id="krct0K91iLvaCfJSw0Wz-60" style="shape=tableRow;horizontal=0;startSize=0;swimlaneHead=0;swimlaneBody=0;top=0;left=0;bottom=0;right=0;dropTarget=0;collapsible=0;recursiveResize=0;expand=0;fontStyle=0;fillColor=none;strokeColor=inherit;" parent="krct0K91iLvaCfJSw0Wz-43" vertex="1">
          <mxGeometry y="122" width="265" height="28" as="geometry" />
        </mxCell>
        <mxCell id="krct0K91iLvaCfJSw0Wz-61" value="Rotate Left" style="connectable=0;recursiveResize=0;strokeColor=inherit;fillColor=none;align=center;whiteSpace=wrap;html=1;" parent="krct0K91iLvaCfJSw0Wz-60" vertex="1">
          <mxGeometry width="100" height="28" as="geometry">
            <mxRectangle width="100" height="28" as="alternateBounds" />
          </mxGeometry>
        </mxCell>
        <mxCell id="krct0K91iLvaCfJSw0Wz-62" value="0" style="connectable=0;recursiveResize=0;strokeColor=inherit;fillColor=none;align=center;whiteSpace=wrap;html=1;" parent="krct0K91iLvaCfJSw0Wz-60" vertex="1">
          <mxGeometry x="100" width="78" height="28" as="geometry">
            <mxRectangle width="78" height="28" as="alternateBounds" />
          </mxGeometry>
        </mxCell>
        <mxCell id="krct0K91iLvaCfJSw0Wz-63" value="N/A" style="connectable=0;recursiveResize=0;strokeColor=inherit;fillColor=none;align=center;whiteSpace=wrap;html=1;" parent="krct0K91iLvaCfJSw0Wz-60" vertex="1">
          <mxGeometry x="178" width="87" height="28" as="geometry">
            <mxRectangle width="87" height="28" as="alternateBounds" />
          </mxGeometry>
        </mxCell>
        <mxCell id="krct0K91iLvaCfJSw0Wz-65" value="&lt;font style=&quot;font-size: 14px;&quot;&gt;Classification Window&lt;/font&gt;" style="text;html=1;strokeColor=none;fillColor=none;align=center;verticalAlign=middle;whiteSpace=wrap;rounded=0;" parent="1" vertex="1">
          <mxGeometry x="149.73000000000002" y="442.5" width="185" height="20" as="geometry" />
        </mxCell>
        <mxCell id="krct0K91iLvaCfJSw0Wz-66" value="N = 1" style="text;html=1;strokeColor=none;fillColor=none;align=center;verticalAlign=middle;whiteSpace=wrap;rounded=0;" parent="1" vertex="1">
          <mxGeometry x="434.73" y="132.5" width="60" height="30" as="geometry" />
        </mxCell>
        <mxCell id="krct0K91iLvaCfJSw0Wz-67" value="class:&lt;br&gt;Walk Backward&lt;br&gt;conf: 0.78" style="rounded=0;whiteSpace=wrap;html=1;" parent="1" vertex="1">
          <mxGeometry x="417.23" y="55.63" width="92.5" height="73.75" as="geometry" />
        </mxCell>
        <mxCell id="krct0K91iLvaCfJSw0Wz-81" value="" style="edgeStyle=orthogonalEdgeStyle;rounded=0;orthogonalLoop=1;jettySize=auto;html=1;" parent="1" source="krct0K91iLvaCfJSw0Wz-77" target="krct0K91iLvaCfJSw0Wz-80" edge="1">
          <mxGeometry relative="1" as="geometry" />
        </mxCell>
        <mxCell id="krct0K91iLvaCfJSw0Wz-82" value="Yes" style="edgeLabel;html=1;align=center;verticalAlign=middle;resizable=0;points=[];" parent="krct0K91iLvaCfJSw0Wz-81" vertex="1" connectable="0">
          <mxGeometry x="-0.129" y="1" relative="1" as="geometry">
            <mxPoint x="-1" as="offset" />
          </mxGeometry>
        </mxCell>
        <mxCell id="krct0K91iLvaCfJSw0Wz-88" style="edgeStyle=orthogonalEdgeStyle;rounded=0;orthogonalLoop=1;jettySize=auto;html=1;entryX=0.5;entryY=1;entryDx=0;entryDy=0;" parent="1" source="krct0K91iLvaCfJSw0Wz-77" target="krct0K91iLvaCfJSw0Wz-83" edge="1">
          <mxGeometry relative="1" as="geometry">
            <Array as="points">
              <mxPoint x="591.48" y="499.97" />
              <mxPoint x="863.48" y="499.97" />
            </Array>
          </mxGeometry>
        </mxCell>
        <mxCell id="krct0K91iLvaCfJSw0Wz-89" value="No" style="edgeLabel;html=1;align=center;verticalAlign=middle;resizable=0;points=[];" parent="krct0K91iLvaCfJSw0Wz-88" vertex="1" connectable="0">
          <mxGeometry x="-0.7975" y="1" relative="1" as="geometry">
            <mxPoint x="115" y="1" as="offset" />
          </mxGeometry>
        </mxCell>
        <mxCell id="krct0K91iLvaCfJSw0Wz-77" value="Occurences &lt;br&gt;&amp;gt; 70%" style="rhombus;whiteSpace=wrap;html=1;fillColor=none;shadow=0;" parent="1" vertex="1">
          <mxGeometry x="544.73" y="393.72" width="92.5" height="86.25" as="geometry" />
        </mxCell>
        <mxCell id="krct0K91iLvaCfJSw0Wz-84" value="" style="edgeStyle=orthogonalEdgeStyle;rounded=0;orthogonalLoop=1;jettySize=auto;html=1;" parent="1" source="krct0K91iLvaCfJSw0Wz-80" target="krct0K91iLvaCfJSw0Wz-83" edge="1">
          <mxGeometry relative="1" as="geometry" />
        </mxCell>
        <mxCell id="krct0K91iLvaCfJSw0Wz-87" value="No" style="edgeLabel;html=1;align=center;verticalAlign=middle;resizable=0;points=[];" parent="krct0K91iLvaCfJSw0Wz-84" vertex="1" connectable="0">
          <mxGeometry x="-0.1706" y="3" relative="1" as="geometry">
            <mxPoint x="-3" y="2" as="offset" />
          </mxGeometry>
        </mxCell>
        <mxCell id="krct0K91iLvaCfJSw0Wz-91" style="edgeStyle=orthogonalEdgeStyle;rounded=0;orthogonalLoop=1;jettySize=auto;html=1;entryX=0.5;entryY=1;entryDx=0;entryDy=0;" parent="1" source="krct0K91iLvaCfJSw0Wz-80" target="krct0K91iLvaCfJSw0Wz-90" edge="1">
          <mxGeometry relative="1" as="geometry">
            <Array as="points">
              <mxPoint x="728" y="380" />
              <mxPoint x="798" y="380" />
            </Array>
          </mxGeometry>
        </mxCell>
        <mxCell id="krct0K91iLvaCfJSw0Wz-92" value="Yes" style="edgeLabel;html=1;align=center;verticalAlign=middle;resizable=0;points=[];" parent="krct0K91iLvaCfJSw0Wz-91" vertex="1" connectable="0">
          <mxGeometry x="0.2967" relative="1" as="geometry">
            <mxPoint x="-32" as="offset" />
          </mxGeometry>
        </mxCell>
        <mxCell id="krct0K91iLvaCfJSw0Wz-80" value="Confidence &lt;br&gt;&amp;gt; 0.83" style="rhombus;whiteSpace=wrap;html=1;fillColor=none;shadow=0;" parent="1" vertex="1">
          <mxGeometry x="678.48" y="391.22" width="100" height="91.25" as="geometry" />
        </mxCell>
        <mxCell id="krct0K91iLvaCfJSw0Wz-83" value="&lt;b&gt;No Gesture!&lt;/b&gt;" style="ellipse;whiteSpace=wrap;html=1;fillColor=#fff2cc;shadow=0;strokeColor=#d6b656;" parent="1" vertex="1">
          <mxGeometry x="818.48" y="411.85" width="90" height="50" as="geometry" />
        </mxCell>
        <mxCell id="krct0K91iLvaCfJSw0Wz-96" value="" style="edgeStyle=orthogonalEdgeStyle;rounded=0;orthogonalLoop=1;jettySize=auto;html=1;" parent="1" source="krct0K91iLvaCfJSw0Wz-90" target="krct0K91iLvaCfJSw0Wz-95" edge="1">
          <mxGeometry relative="1" as="geometry" />
        </mxCell>
        <mxCell id="krct0K91iLvaCfJSw0Wz-99" value="No" style="edgeLabel;html=1;align=center;verticalAlign=middle;resizable=0;points=[];" parent="krct0K91iLvaCfJSw0Wz-96" vertex="1" connectable="0">
          <mxGeometry x="0.0692" y="2" relative="1" as="geometry">
            <mxPoint x="-13" y="2" as="offset" />
          </mxGeometry>
        </mxCell>
        <mxCell id="krct0K91iLvaCfJSw0Wz-97" style="edgeStyle=orthogonalEdgeStyle;rounded=0;orthogonalLoop=1;jettySize=auto;html=1;entryX=0.5;entryY=0;entryDx=0;entryDy=0;" parent="1" source="krct0K91iLvaCfJSw0Wz-90" target="krct0K91iLvaCfJSw0Wz-83" edge="1">
          <mxGeometry relative="1" as="geometry">
            <Array as="points">
              <mxPoint x="863" y="275" />
            </Array>
          </mxGeometry>
        </mxCell>
        <mxCell id="krct0K91iLvaCfJSw0Wz-98" value="Yes" style="edgeLabel;html=1;align=center;verticalAlign=middle;resizable=0;points=[];" parent="krct0K91iLvaCfJSw0Wz-97" vertex="1" connectable="0">
          <mxGeometry x="-0.0958" y="1" relative="1" as="geometry">
            <mxPoint as="offset" />
          </mxGeometry>
        </mxCell>
        <mxCell id="krct0K91iLvaCfJSw0Wz-90" value="&lt;font style=&quot;font-size: 11px;&quot;&gt;Same as previous recognition?&lt;/font&gt;" style="rhombus;whiteSpace=wrap;html=1;" parent="1" vertex="1">
          <mxGeometry x="738.48" y="220" width="120" height="110" as="geometry" />
        </mxCell>
        <mxCell id="krct0K91iLvaCfJSw0Wz-95" value="&lt;b&gt;Recognized&lt;br&gt;Gesture!&lt;/b&gt;" style="ellipse;whiteSpace=wrap;html=1;fillColor=#d5e8d4;strokeColor=#82b366;" parent="1" vertex="1">
          <mxGeometry x="738.48" y="85" width="120" height="77.5" as="geometry" />
        </mxCell>
        <mxCell id="krct0K91iLvaCfJSw0Wz-106" style="edgeStyle=orthogonalEdgeStyle;rounded=0;orthogonalLoop=1;jettySize=auto;html=1;exitX=1;exitY=0.5;exitDx=0;exitDy=0;entryX=0;entryY=0.5;entryDx=0;entryDy=0;" parent="1" source="krct0K91iLvaCfJSw0Wz-100" target="krct0K91iLvaCfJSw0Wz-29" edge="1">
          <mxGeometry relative="1" as="geometry" />
        </mxCell>
        <mxCell id="krct0K91iLvaCfJSw0Wz-100" value="" style="shape=image;verticalLabelPosition=bottom;labelBackgroundColor=default;verticalAlign=top;aspect=fixed;imageAspect=0;image=https://static.thenounproject.com/png/1503831-200.png;clipPath=inset(12.5% 10% 14% 14%);imageBorder=#7F00FF;dashed=1;strokeWidth=2;" parent="1" vertex="1">
          <mxGeometry x="285.98" y="53.75" width="85.31" height="82.5" as="geometry" />
        </mxCell>
        <mxCell id="krct0K91iLvaCfJSw0Wz-103" value="&lt;span style=&quot;color: rgb(0, 0, 0); font-family: Helvetica; font-size: 11px; font-style: normal; font-variant-ligatures: normal; font-variant-caps: normal; letter-spacing: normal; orphans: 2; text-align: center; text-indent: 0px; text-transform: none; widows: 2; word-spacing: 0px; -webkit-text-stroke-width: 0px; background-color: rgb(255, 255, 255); text-decoration-thickness: initial; text-decoration-style: initial; text-decoration-color: initial; float: none; display: inline !important;&quot;&gt;&lt;b&gt;SVM Classifier (~30 Hz)&lt;/b&gt;&lt;/span&gt;" style="text;html=1;strokeColor=none;fillColor=none;align=center;verticalAlign=middle;whiteSpace=wrap;rounded=0;" parent="1" vertex="1">
          <mxGeometry x="286.63000000000005" y="13.75" width="84.02" height="40" as="geometry" />
        </mxCell>
        <mxCell id="krct0K91iLvaCfJSw0Wz-107" value="&lt;span style=&quot;color: rgb(0, 0, 0); font-family: Helvetica; font-style: normal; font-variant-ligatures: normal; font-variant-caps: normal; letter-spacing: normal; orphans: 2; text-align: center; text-indent: 0px; text-transform: none; widows: 2; word-spacing: 0px; -webkit-text-stroke-width: 0px; background-color: rgb(255, 255, 255); text-decoration-thickness: initial; text-decoration-style: initial; text-decoration-color: initial; float: none; display: inline !important;&quot;&gt;&lt;font style=&quot;font-size: 14px;&quot;&gt;&lt;b&gt;Microsoft HoloLens&lt;/b&gt;&lt;/font&gt;&lt;/span&gt;" style="text;html=1;strokeColor=none;fillColor=none;align=center;verticalAlign=middle;whiteSpace=wrap;rounded=0;" parent="1" vertex="1">
          <mxGeometry x="56.67" y="10" width="180" height="30" as="geometry" />
        </mxCell>
        <mxCell id="krct0K91iLvaCfJSw0Wz-108" value="&lt;font size=&quot;1&quot; style=&quot;&quot;&gt;&lt;b style=&quot;font-size: 14px;&quot;&gt;Classification results&lt;/b&gt;&lt;/font&gt;" style="text;html=1;strokeColor=none;fillColor=none;align=center;verticalAlign=middle;whiteSpace=wrap;rounded=0;" parent="1" vertex="1">
          <mxGeometry x="465.98" y="30" width="185" height="20" as="geometry" />
        </mxCell>
      </root>
    </mxGraphModel>
  </diagram>
</mxfile>
